<?xml version="1.0" standalone="no"?>
<!DOCTYPE svg PUBLIC "-//W3C//DTD SVG 20010904//EN" "http://www.w3.org/TR/2001/REC-SVG-20010904/DTD/svg10.dtd">
<!-- Created using Krita: https://krita.org -->
<svg xmlns="http://www.w3.org/2000/svg" 
    xmlns:xlink="http://www.w3.org/1999/xlink"
    xmlns:krita="http://krita.org/namespaces/svg/krita"
    xmlns:sodipodi="http://sodipodi.sourceforge.net/DTD/sodipodi-0.dtd"
    width="1459.84pt"
    height="1508.03pt"
    viewBox="0 0 1459.84 1508.03">
<defs/>
<path id="shape0" transform="matrix(1.00000001003758 0 0 1.00000001003758 460.629926217789 780.944899535368)" fill="#101d21" fill-rule="evenodd" stroke="#000000" stroke-opacity="0" stroke-width="0" stroke-linecap="square" stroke-linejoin="bevel" d="M113.386 524.409C144.148 437.429 534.726 478.046 700.157 619.37L831.969 297.638L123.307 0L0 171.496Z"/><path id="shape2" transform="matrix(1.00000001003758 0 0 1.00000001003758 426.968502886125 953.858265368836)" fill="#2e535f" fill-rule="evenodd" stroke="#000000" stroke-opacity="0" stroke-width="0" stroke-linecap="square" stroke-linejoin="bevel" d="M67.6772 4.96073C100.126 201.977 187.39 407.773 240.654 551.891C227.955 554.106 201.218 545.012 168.839 521.879L0 0Z"/><path id="shape1" transform="matrix(1.00000001003758 0 0 1.00000001003758 403.937041277986 793.700888986089)" fill="#223d46" fill-rule="evenodd" stroke="#000000" stroke-opacity="0" stroke-width="0" stroke-linecap="square" stroke-linejoin="bevel" d="M172.913 0L0 160.866L88.5827 165.827C128.718 123.282 171.081 85.0144 227.48 41.811Z"/><path id="shape3" transform="matrix(1.00000001003758 0 0 1.00000001003758 1160.70446755715 1025.28163485665)" fill="#2e535f" fill-rule="evenodd" stroke="#000000" stroke-opacity="0" stroke-width="0" stroke-linecap="square" stroke-linejoin="bevel" d="M188.413 0C141.246 76.6644 94.2919 150.922 36.0791 352.774L0 372.818C11.6473 275.505 81.0648 108.453 147.323 19.958Z"/><path id="shape4" transform="matrix(1.00000001003758 0 0 1.00000001003758 274.760957651997 538.175492383821)" fill="#438a9c" fill-rule="evenodd" stroke="#000000" stroke-opacity="0" stroke-width="0" stroke-linecap="square" stroke-linejoin="bevel" d="M0 266.035C98.1167 175.468 186.646 18.5634 350.279 0.407251C495.788 -15.3746 765.327 431.307 851.869 682.95C667.464 545.983 483.06 409.016 298.655 272.049L156.343 418.37L326.184 941.517L104.229 781.166C232.844 628.497 27.7275 272.383 0 266.035Z"/><path id="shape5" transform="matrix(1.00000001003758 0 0 1.00000001003758 1126.97227372631 548.149121706519)" fill="#223d46" fill-rule="evenodd" stroke="#000000" stroke-opacity="0" stroke-width="0" stroke-linecap="square" stroke-linejoin="bevel" d="M269.75 0L0 673.781C100.419 606.386 229.975 493.175 332.387 324.211C331.547 199.969 295.353 100.967 269.75 0Z"/><path id="shape01" transform="matrix(0.834761940267824 -0.550611067743812 0.550611067743812 0.834761940267824 -58.5148632333063 911.254003344643)" fill="#3e3e3e" stroke="#000000" stroke-opacity="0" stroke-width="0" stroke-linecap="square" stroke-linejoin="bevel" d="M193.29 258.863C193.29 115.897 150.02 8.75416e-15 96.6449 0C43.2694 -8.75416e-15 6.53661e-15 115.897 0 258.863C-6.53661e-15 401.83 43.2694 517.727 96.6449 517.727C150.02 517.727 193.29 401.83 193.29 258.863Z"/><path id="shape6" transform="matrix(1.00000001003758 0 0 1.00000001003758 77.8289007925687 53.1540758617515)" fill="#276280" fill-rule="evenodd" stroke="#000000" stroke-opacity="0" stroke-width="0" stroke-linecap="square" stroke-linejoin="miter" stroke-miterlimit="2" d="M196.932 751.057C115.997 680.084 60.8838 655.17 0 718.986C3.26035 243.067 377.082 -26.8852 704.533 2.12154C866.469 -4.90091 1227.92 139.777 1320.4 503.514C1338.12 674.215 1248.15 904.852 1048.14 1169.53C857.286 794.422 635.374 529.503 534.673 510.529C341.721 600.085 282.397 673.7 196.932 751.057Z"/><path id="shape7" transform="matrix(1.00000001003758 0 0 1.00000001003758 22.6771651956696 734.187586254605)" fill="#50535a" fill-rule="evenodd" stroke="#000000" stroke-opacity="0" stroke-width="0" stroke-linecap="square" stroke-linejoin="bevel" d="M57.6573 31.9398L0 124.001C145.766 108.083 392.397 509.351 256.093 563.105L362.326 589.162C501.224 404.297 248.253 -136.033 57.6573 31.9398Z"/><path id="shape01" transform="matrix(0.834761882195234 -0.550611029438987 0.550611029438987 0.834761882195234 61.5730857021455 999.255789914597)" fill="#331e1e" stroke="#000000" stroke-opacity="0" stroke-width="0" stroke-linecap="square" stroke-linejoin="bevel" d="M95.6785 128.137C95.6785 57.369 74.2599 4.3333e-15 47.8392 0C21.4183 -4.3333e-15 3.23562e-15 57.369 0 128.137C-3.23562e-15 198.906 21.4183 256.275 47.8392 256.275C74.2599 256.275 95.6785 198.906 95.6785 128.137Z"/><path id="shape10" transform="matrix(1.00000001003758 0 0 1.00000001003758 972.257905542092 552.086133011342)" fill="#54727d" fill-rule="evenodd" stroke="#000000" stroke-opacity="0" stroke-width="0" stroke-linecap="square" stroke-linejoin="bevel" d="M0 131.914L105.607 0L317.73 14.6037L334.768 124.845C277.635 135.666 108.021 167.931 0 131.914Z"/><path id="shape8" transform="matrix(1.00000001003758 0 0 1.00000001003758 368.503937629021 1.41733450909784)" fill="#a5c4d6" fill-rule="evenodd" stroke="#000000" stroke-opacity="0" stroke-width="0" stroke-linecap="square" stroke-linejoin="bevel" d="M0 173.268C38.0586 84.9801 114.114 1.66403 232.087 0C427.577 34.6887 602.185 276.806 709.016 552.579L603.78 683.15C495.892 312.081 276.409 80.5327 0 173.268Z"/><path id="shape9" transform="matrix(1.00000001003758 0 0 1.00000001003758 600.944887921746 1.70034762426539)" fill="#5b9dab" fill-rule="evenodd" stroke="#000000" stroke-opacity="0" stroke-width="0" stroke-linecap="square" stroke-linejoin="bevel" d="M0 0C237.285 37.8793 424.623 415.522 475.575 551.961L688.041 565.992C616.217 245.622 447.208 57.4705 290.197 10.7013Z"/><path id="shape02" transform="matrix(0.834761908917753 -0.550611047065227 0.550611047065227 0.834761908917753 140.444345126865 1013.60560982887)" fill="#7f0000" stroke="#000000" stroke-opacity="0" stroke-width="0" stroke-linecap="square" stroke-linejoin="bevel" d="M27.6397 0C-18.571 69.6061 1.27205 109.633 28.4735 141.618C46.4049 92.7338 46.1767 53.5799 27.6397 0Z"/><path id="shape11" transform="matrix(1.00000001003758 0 0 1.00000001003758 1027.41210866868 610.786569425887)" fill="#7f0000" fill-rule="evenodd" stroke="#000000" stroke-opacity="0" stroke-width="0" stroke-linecap="square" stroke-linejoin="bevel" d="M0 84.1847C31.8081 36.1853 58.8273 20.0579 85.5407 0.079598L231.508 0C256.83 20.2974 258.415 79.236 254.558 144.818C255.312 263.844 201.404 437.837 102.224 319.701C52.1469 231.931 21.618 157.008 0 84.1847Z"/><path id="shape12" transform="matrix(1.00000001003758 0 0 1.00000001003758 1116.71817077813 612.968339591842)" fill="#ce0000" fill-rule="evenodd" stroke="#000000" stroke-opacity="0" stroke-width="0" stroke-linecap="square" stroke-linejoin="bevel" d="M161.78 76.4105C161.179 34.5923 153.836 12.7599 142.703 4.08192C125.584 0.697464 106.23 0.606594 85.1716 0.399559C71.7321 0.414037 -3.57552 -2.41475 0.132377 6.77758C181.701 2.25564 149.215 284.183 114.641 325.036C169.247 273.912 161.78 114.766 161.78 76.4105Z"/><path id="shape13" transform="matrix(1.00000001003758 0 0 1.00000001003758 175.006298311356 1026.44846286626)" fill="#ff0000" fill-rule="evenodd" stroke="#000000" stroke-opacity="0" stroke-width="0" stroke-linecap="square" stroke-linejoin="bevel" d="M0.536994 0C9.64193 23.5677 34.8242 61.5181 51.8997 72.9099C32.8947 72.9685 -4.94382 34.558 0.536994 0Z"/>
</svg>
